# xmcd
# Track frame offsets:
# 182
# 14830
# 38525
# 51422
# 62810
# 75155
# 86917
# 101212
# 119180
# 135340
# 145217
# 157937
# 172212
# 189310
# 202795
# 214837
# 226665
# 238990
#
# Disc length: 3351 seconds
# Revision: 1
# Processed by: cddbd v1.5.2PL0 Copyright (c) Steve Scherf et al.
# Submitted via: VisiTrax 2.10.3.257 - For more info visit www.synapsa.com
#
DISCID=fc0d1512
DTITLE=Various Artist - Country and Western Hits CD1
DYEAR=1994
DGENRE=Country
TTITLE0=Glenn Campbell - Like a rhinestone cowboy
TTITLE1=Dolly Parton - You are
TTITLE2=Ennio Morricone - For a few dollars more
TTITLE3=Don Gibson - Oh lonesome me
TTITLE4=Charlie Rich - The most beautiful girl in the world
TTITLE5=Dottie West - Are you lonesome tonight
TTITLE6=Sara Beth - I'm so lonesome I could cry
TTITLE7=Bobby Goldsboro - Honey
TTITLE8=Billie-Jo Spears - Blanket on the ground
TTITLE9=Paul Anka - A steelguitar and a glass of wine
TTITLE10=Lynn Anderon - Rose garden
TTITLE11=Dr Hook - A couple more years
TTITLE12=Grant and Forsyth - Rawhide Medley
TTITLE13=Willie Nelson - Help me make it through thr night
TTITLE14=Crystal Gayle - Don't it make my brown eyes blue
TTITLE15=Tennessee Ernie Ford - Sixteen tons
TTITLE16=Dave and Sugar - The door is always open
TTITLE17=Wylon Jennings - I'm a ramblin'man
EXTD=
EXTT0=
EXTT1=
EXTT2=
EXTT3=
EXTT4=
EXTT5=
EXTT6=
EXTT7=
EXTT8=
EXTT9=
EXTT10=
EXTT11=
EXTT12=
EXTT13=
EXTT14=
EXTT15=
EXTT16=
EXTT17=
PLAYORDER=
